<svg width="34" height="34" viewBox="0 0 34 34" fill="none" xmlns="http://www.w3.org/2000/svg">
<mask id="mask0_160_53" style="mask-type:alpha" maskUnits="userSpaceOnUse" x="0" y="0" width="34" height="34">
<rect width="34" height="34" fill="#D9D9D9"/>
</mask>
<g mask="url(#mask0_160_53)">
<path d="M19.8333 29.75C19.4319 29.75 19.0957 29.614 18.8247 29.342C18.5527 29.0709 18.4167 28.7347 18.4167 28.3333C18.4167 27.9319 18.5527 27.5957 18.8247 27.3247C19.0957 27.0527 19.4319 26.9167 19.8333 26.9167C20.9431 26.9167 21.9286 26.6985 22.7899 26.2622C23.6522 25.8249 24.0833 25.3347 24.0833 24.7917C24.0833 24.4611 23.9299 24.1542 23.6229 23.8708C23.316 23.5875 22.891 23.3278 22.3479 23.0917L24.4375 21.0021C25.1931 21.4507 25.7951 21.9819 26.2437 22.5958C26.6924 23.2097 26.9167 23.9417 26.9167 24.7917C26.9167 26.35 26.1729 27.566 24.6854 28.4396C23.1979 29.3132 21.5806 29.75 19.8333 29.75ZM6.48125 18.9125C5.79653 18.5111 5.25347 18.0446 4.85208 17.5128C4.45069 16.9821 4.25 16.3389 4.25 15.5833C4.25 14.5917 4.61597 13.7591 5.34792 13.0858C6.07986 12.4133 7.39028 11.6639 9.27917 10.8375C10.7667 10.1528 11.7168 9.67442 12.1295 9.40242C12.5432 9.13136 12.75 8.83056 12.75 8.5C12.75 8.12222 12.5196 7.79167 12.0587 7.50833C11.5987 7.225 10.8847 7.08333 9.91667 7.08333C9.32639 7.08333 8.83055 7.15417 8.42917 7.29583C8.02778 7.4375 7.66181 7.67361 7.33125 8.00417C7.07153 8.26389 6.75278 8.41736 6.375 8.46458C5.99722 8.51181 5.65486 8.40556 5.34792 8.14583C5.04097 7.90972 4.86389 7.60278 4.81667 7.225C4.76944 6.84722 4.87569 6.50486 5.13542 6.19792C5.58403 5.65486 6.22767 5.19444 7.06633 4.81667C7.90406 4.43889 8.85417 4.25 9.91667 4.25C11.6167 4.25 12.9861 4.63344 14.025 5.40033C15.0639 6.16817 15.5833 7.20139 15.5833 8.5C15.5833 9.42083 15.241 10.2472 14.5562 10.9792C13.8715 11.7111 12.4903 12.5257 10.4125 13.4229C9.04306 14.0132 8.14583 14.45 7.72083 14.7333C7.29583 15.0167 7.08333 15.3 7.08333 15.5833C7.08333 15.7958 7.21886 16.0027 7.48992 16.2038C7.76192 16.4041 8.13403 16.5986 8.60625 16.7875L6.48125 18.9125ZM26.7042 14.7333L20.6833 8.7125L22.1708 7.225C22.7375 6.65833 23.4161 6.375 24.2066 6.375C24.998 6.375 25.6653 6.65833 26.2083 7.225L28.1917 9.20833C28.7583 9.75139 29.0417 10.4182 29.0417 11.2087C29.0417 12.0001 28.7583 12.6792 28.1917 13.2458L26.7042 14.7333ZM8.5 26.9167H10.4833L20.6833 16.7167L18.7 14.7333L8.5 24.9333V26.9167ZM5.66667 29.75V23.7292L18.7 10.6958L24.7208 16.7167L11.6875 29.75H5.66667Z" fill="#1C1B1F"/>
</g>
</svg>
