<svg width="34" height="34" viewBox="0 0 34 34" fill="none" xmlns="http://www.w3.org/2000/svg">
<mask id="mask0_163_88" style="mask-type:alpha" maskUnits="userSpaceOnUse" x="0" y="0" width="34" height="34">
<rect width="34" height="34" fill="#D9D9D9"/>
</mask>
<g mask="url(#mask0_163_88)">
<path d="M26.9167 12.75L25.1459 8.85413L21.25 7.08329L25.1459 5.31246L26.9167 1.41663L28.6875 5.31246L32.5834 7.08329L28.6875 8.85413L26.9167 12.75ZM26.9167 32.5833L25.1459 28.6875L21.25 26.9166L25.1459 25.1458L26.9167 21.25L28.6875 25.1458L32.5834 26.9166L28.6875 28.6875L26.9167 32.5833ZM12.75 28.3333L9.20835 20.5416L1.41669 17L9.20835 13.4583L12.75 5.66663L16.2917 13.4583L24.0834 17L16.2917 20.5416L12.75 28.3333ZM12.75 21.4625L14.1667 18.4166L17.2125 17L14.1667 15.5833L12.75 12.5375L11.3334 15.5833L8.28752 17L11.3334 18.4166L12.75 21.4625Z" fill="#1C1B1F"/>
</g>
</svg>
