<svg width="34" height="34" viewBox="0 0 34 34" fill="none" xmlns="http://www.w3.org/2000/svg">
<mask id="mask0_160_38" style="mask-type:alpha" maskUnits="userSpaceOnUse" x="0" y="0" width="34" height="34">
<rect width="34" height="34" fill="#D9D9D9"/>
</mask>
<g mask="url(#mask0_160_38)">
<path d="M8.49998 29.75C7.43748 29.75 6.38679 29.4903 5.3479 28.9708C4.30901 28.4514 3.47081 27.7667 2.83331 26.9167C3.4472 26.9167 4.0729 26.6749 4.7104 26.1913C5.3479 25.7068 5.66665 25.0042 5.66665 24.0833C5.66665 22.9028 6.07984 21.8993 6.90623 21.0729C7.73262 20.2465 8.73609 19.8333 9.91665 19.8333C11.0972 19.8333 12.1007 20.2465 12.9271 21.0729C13.7535 21.8993 14.1666 22.9028 14.1666 24.0833C14.1666 25.6417 13.6118 26.9757 12.5021 28.0854C11.3923 29.1951 10.0583 29.75 8.49998 29.75ZM8.49998 26.9167C9.27915 26.9167 9.94592 26.6395 10.5003 26.0851C11.0556 25.5298 11.3333 24.8625 11.3333 24.0833C11.3333 23.682 11.1978 23.3457 10.9267 23.0747C10.6547 22.8027 10.318 22.6667 9.91665 22.6667C9.51526 22.6667 9.17856 22.8027 8.90656 23.0747C8.63551 23.3457 8.49998 23.682 8.49998 24.0833C8.49998 24.6264 8.43529 25.1222 8.3059 25.5708C8.17556 26.0195 8.00415 26.4445 7.79165 26.8458C7.9097 26.8931 8.02776 26.9167 8.14581 26.9167H8.49998ZM16.6458 21.25L12.75 17.3542L25.4291 4.67501C25.6889 4.41529 26.0138 4.27929 26.4038 4.26701C26.7929 4.25568 27.1291 4.39168 27.4125 4.67501L29.325 6.58751C29.6083 6.87084 29.75 7.2014 29.75 7.57918C29.75 7.95696 29.6083 8.28751 29.325 8.57084L16.6458 21.25Z" fill="#1C1B1F"/>
</g>
</svg>
