<svg width="34" height="34" viewBox="0 0 34 34" fill="none" xmlns="http://www.w3.org/2000/svg">
<mask id="mask0_160_46" style="mask-type:alpha" maskUnits="userSpaceOnUse" x="0" y="0" width="34" height="34">
<rect width="34" height="34" fill="#D9D9D9"/>
</mask>
<g mask="url(#mask0_160_46)">
<path d="M8.50002 28.3334C7.31946 28.3334 6.31599 27.9202 5.4896 27.0938C4.66321 26.2674 4.25002 25.2639 4.25002 24.0834H1.41669V8.50002C1.41669 7.72085 1.69435 7.05408 2.24969 6.49969C2.80408 5.94435 3.47085 5.66669 4.25002 5.66669H24.0834V11.3334H28.3334L32.5834 17V24.0834H29.75C29.75 25.2639 29.3368 26.2674 28.5104 27.0938C27.684 27.9202 26.6806 28.3334 25.5 28.3334C24.3195 28.3334 23.316 27.9202 22.4896 27.0938C21.6632 26.2674 21.25 25.2639 21.25 24.0834H12.75C12.75 25.2639 12.3368 26.2674 11.5104 27.0938C10.684 27.9202 9.68058 28.3334 8.50002 28.3334ZM8.50002 25.5C8.90141 25.5 9.2381 25.364 9.5101 25.092C9.78116 24.821 9.91669 24.4847 9.91669 24.0834C9.91669 23.682 9.78116 23.3457 9.5101 23.0747C9.2381 22.8027 8.90141 22.6667 8.50002 22.6667C8.09863 22.6667 7.76194 22.8027 7.48994 23.0747C7.21888 23.3457 7.08335 23.682 7.08335 24.0834C7.08335 24.4847 7.21888 24.821 7.48994 25.092C7.76194 25.364 8.09863 25.5 8.50002 25.5ZM4.25002 21.25H5.38335C5.78474 20.825 6.24516 20.4827 6.7646 20.2229C7.28405 19.9632 7.86252 19.8334 8.50002 19.8334C9.13752 19.8334 9.71599 19.9632 10.2354 20.2229C10.7549 20.4827 11.2153 20.825 11.6167 21.25H21.25V8.50002H4.25002V21.25ZM25.5 25.5C25.9014 25.5 26.2376 25.364 26.5087 25.092C26.7807 24.821 26.9167 24.4847 26.9167 24.0834C26.9167 23.682 26.7807 23.3457 26.5087 23.0747C26.2376 22.8027 25.9014 22.6667 25.5 22.6667C25.0986 22.6667 24.7624 22.8027 24.4914 23.0747C24.2194 23.3457 24.0834 23.682 24.0834 24.0834C24.0834 24.4847 24.2194 24.821 24.4914 25.092C24.7624 25.364 25.0986 25.5 25.5 25.5ZM24.0834 18.4167H30.1042L26.9167 14.1667H24.0834V18.4167Z" fill="#1C1B1F"/>
</g>
</svg>
